<svg width="182" height="116" viewBox="0 0 182 116" fill="none" xmlns="http://www.w3.org/2000/svg">
<path d="M26.2734 97.6035C26.2734 98.9564 26.6991 100.276 27.5119 101.404L31.5291 106.923C32.7595 108.615 35.5533 109.991 37.7728 109.991H52.2267C54.4388 109.991 57.233 108.616 58.4634 106.923L62.4666 101.406C63.1552 100.453 63.72 98.7486 63.72 97.6035L63.75 89.1816H26.25L26.2734 97.6035ZM45 0C21.0984 0.0688145 3.75 17.8256 3.75 37.6191C3.75 47.1539 7.60313 55.8465 13.9594 62.4981C17.8336 66.5457 23.8828 75.0084 26.1984 82.1455C26.2058 82.1992 26.2204 82.2565 26.2277 82.3136H63.7746C63.7819 82.2565 63.7966 82.2026 63.8039 82.1455C66.1184 75.0084 72.1688 66.5457 76.043 62.4981C82.4062 56.0313 86.25 47.3516 86.25 37.6191C86.25 16.9297 67.7812 0.000837891 45 0ZM67.5938 55.8809C63.9234 59.7158 59.3813 65.8281 56.0977 72.1854H33.9234C30.6398 65.8281 26.0977 59.7158 22.4297 55.883C17.6344 50.875 15 44.2793 15 37.6191C15 24.3418 26.2734 10.3662 44.7891 10.3125C61.5469 10.3125 75 22.6445 75 37.6191C75 44.2793 72.375 50.875 67.5938 55.8809ZM41.25 17.1875C30.9141 17.1875 22.5 24.9004 22.5 34.375C22.5 36.2751 24.1772 37.8125 26.25 37.8125C28.3228 37.8125 30 36.2656 30 34.375C30 28.6881 35.0461 24.0625 41.25 24.0625C43.3228 24.0625 45 22.5268 45 20.6271C45 18.7275 43.3125 17.1875 41.25 17.1875Z" fill="#C0E2F1"/>
<path d="M85.255 65.425C85.315 64.855 85.675 64.39 86.335 64.03C86.995 63.67 87.73 63.49 88.54 63.49C89.35 63.49 90.13 63.685 90.88 64.075C91.66 64.435 92.185 65.065 92.455 65.965C95.005 63.745 97.33 62.89 99.43 63.4C100.15 63.55 100.765 63.97 101.275 64.66C102.805 63.19 104.5 62.23 106.36 61.78C108.7 61.69 110.38 62.23 111.4 63.4C111.55 63.55 111.7 63.715 111.85 63.895C112.27 64.345 112.51 64.645 112.57 64.795C113.11 65.635 113.26 67.57 113.02 70.6C112.69 74.53 111.94 78.475 110.77 82.435C110.14 84.445 109.57 85.48 109.06 85.54C108.76 85.6 108.475 85.6 108.205 85.54C107.965 85.48 107.74 85.435 107.53 85.405C107.35 85.405 107.245 85.585 107.215 85.945C106.615 86.725 105.7 87.115 104.47 87.115C103.27 87.115 102.25 86.74 101.41 85.99C100.48 85.21 100.15 84.295 100.42 83.245C100.72 82.165 101.05 81.07 101.41 79.96C101.77 78.82 102.16 77.65 102.58 76.45C103.3 74.35 104.095 72.16 104.965 69.88C104.335 70.6 103.48 71.965 102.4 73.975C101.32 75.955 100.645 77.14 100.375 77.53C99.865 78.55 99.445 79.36 99.115 79.96C98.785 80.53 98.335 80.995 97.765 81.355C97.225 81.685 96.715 81.895 96.235 81.985C95.785 82.075 95.35 82.09 94.93 82.03C93.94 81.88 93.235 81.46 92.815 80.77C92.725 80.53 92.635 80.29 92.545 80.05C92.455 79.81 92.38 79.48 92.32 79.06C92.23 78.13 92.35 76.615 92.68 74.515L92.59 74.65C92.95 74.29 93.07 74.2 92.95 74.38C91.75 76.09 91.03 77.185 90.79 77.665C90.55 78.145 90.295 78.685 90.025 79.285C89.755 79.855 89.44 80.53 89.08 81.31C88.72 82.06 88.435 82.735 88.225 83.335C88.015 83.935 87.76 84.52 87.46 85.09C86.11 87.43 83.74 88.375 80.35 87.925C79.63 87.835 79.015 87.655 78.505 87.385C77.995 87.145 77.785 86.77 77.875 86.26C78.115 85.06 78.67 83.065 79.54 80.275C81.25 74.755 82.27 71.2 82.6 69.61C82.81 69.07 82.99 68.515 83.14 67.945C83.32 67.375 83.5 66.88 83.68 66.46C84.04 65.47 84.565 65.125 85.255 65.425ZM100.87 76.54V76.63C100.93 76.51 100.93 76.48 100.87 76.54ZM122.092 85.135L120.967 86.17C120.367 86.59 119.782 86.845 119.212 86.935L119.257 86.98L119.032 87.16C116.902 87.34 115.327 86.875 114.307 85.765C113.257 84.595 113.032 83.065 113.632 81.175C114.952 73.705 116.797 66.775 119.167 60.385C120.757 56.065 122.287 53.17 123.757 51.7C124.537 50.95 125.257 50.725 125.917 51.025C126.097 50.305 126.412 49.75 126.862 49.36C127.312 48.94 127.807 48.7 128.347 48.64C128.887 48.55 129.412 48.64 129.922 48.91C130.432 49.15 130.822 49.6 131.092 50.26C131.392 50.92 131.512 51.565 131.452 52.195C131.422 52.795 131.287 53.395 131.047 53.995C130.837 54.565 130.567 55.135 130.237 55.705C129.937 56.275 129.652 56.845 129.382 57.415C127.462 62.035 126.097 65.455 125.287 67.675L125.692 67.405C127.672 66.085 129.787 65.5 132.037 65.65C133.027 65.74 133.912 66.01 134.692 66.46C135.502 66.88 136.087 67.525 136.447 68.395C136.837 69.265 136.987 70.39 136.897 71.77C136.837 73.12 136.582 74.53 136.132 76C135.682 77.44 135.067 78.85 134.287 80.23C133.537 81.61 132.697 82.81 131.767 83.83C129.667 86.14 127.642 87.01 125.692 86.44C124.852 86.56 123.877 86.17 122.767 85.27C122.527 85.06 122.302 84.895 122.092 84.775V85.135ZM123.307 81.895C123.757 81.385 124.522 80.425 125.602 79.015C126.712 77.605 127.447 76.51 127.807 75.73C128.197 74.92 128.107 74.17 127.537 73.48C126.967 72.76 126.247 73.3 125.377 75.1C123.997 77.98 123.307 80.245 123.307 81.895ZM143.614 65.425C143.674 64.855 144.034 64.39 144.694 64.03C145.354 63.67 146.089 63.49 146.899 63.49C147.709 63.49 148.489 63.685 149.239 64.075C150.019 64.435 150.544 65.065 150.814 65.965C153.364 63.745 155.689 62.89 157.789 63.4C158.509 63.55 159.124 63.97 159.634 64.66C161.164 63.19 162.859 62.23 164.719 61.78C167.059 61.69 168.739 62.23 169.759 63.4C169.909 63.55 170.059 63.715 170.209 63.895C170.629 64.345 170.869 64.645 170.929 64.795C171.469 65.635 171.619 67.57 171.379 70.6C171.049 74.53 170.299 78.475 169.129 82.435C168.499 84.445 167.929 85.48 167.419 85.54C167.119 85.6 166.834 85.6 166.564 85.54C166.324 85.48 166.099 85.435 165.889 85.405C165.709 85.405 165.604 85.585 165.574 85.945C164.974 86.725 164.059 87.115 162.829 87.115C161.629 87.115 160.609 86.74 159.769 85.99C158.839 85.21 158.509 84.295 158.779 83.245C159.079 82.165 159.409 81.07 159.769 79.96C160.129 78.82 160.519 77.65 160.939 76.45C161.659 74.35 162.454 72.16 163.324 69.88C162.694 70.6 161.839 71.965 160.759 73.975C159.679 75.955 159.004 77.14 158.734 77.53C158.224 78.55 157.804 79.36 157.474 79.96C157.144 80.53 156.694 80.995 156.124 81.355C155.584 81.685 155.074 81.895 154.594 81.985C154.144 82.075 153.709 82.09 153.289 82.03C152.299 81.88 151.594 81.46 151.174 80.77C151.084 80.53 150.994 80.29 150.904 80.05C150.814 79.81 150.739 79.48 150.679 79.06C150.589 78.13 150.709 76.615 151.039 74.515L150.949 74.65C151.309 74.29 151.429 74.2 151.309 74.38C150.109 76.09 149.389 77.185 149.149 77.665C148.909 78.145 148.654 78.685 148.384 79.285C148.114 79.855 147.799 80.53 147.439 81.31C147.079 82.06 146.794 82.735 146.584 83.335C146.374 83.935 146.119 84.52 145.819 85.09C144.469 87.43 142.099 88.375 138.709 87.925C137.989 87.835 137.374 87.655 136.864 87.385C136.354 87.145 136.144 86.77 136.234 86.26C136.474 85.06 137.029 83.065 137.899 80.275C139.609 74.755 140.629 71.2 140.959 69.61C141.169 69.07 141.349 68.515 141.499 67.945C141.679 67.375 141.859 66.88 142.039 66.46C142.399 65.47 142.924 65.125 143.614 65.425ZM159.229 76.54V76.63C159.289 76.51 159.289 76.48 159.229 76.54Z" fill="#C0E2F1"/>
<path d="M74.2301 110.264C72.946 110.264 71.8835 109.989 71.0426 109.438C70.2074 108.881 69.6222 108.099 69.2869 107.094C68.9517 106.082 68.8977 104.898 69.125 103.54C69.3466 102.199 69.7926 101.017 70.4631 99.9943C71.1335 98.9716 71.9688 98.1733 72.9688 97.5994C73.9744 97.0256 75.0852 96.7386 76.3011 96.7386C77.0398 96.7386 77.7358 96.8608 78.3892 97.1051C79.0483 97.3494 79.608 97.733 80.0682 98.2557C80.5284 98.7784 80.8466 99.4574 81.0227 100.293C81.2045 101.122 81.1989 102.131 81.0057 103.318L80.8608 104.222H70.446L70.7443 102.312H78.6534C78.7727 101.642 78.7415 101.048 78.5597 100.531C78.3778 100.009 78.0653 99.5966 77.6222 99.2955C77.1847 98.9943 76.6335 98.8438 75.9688 98.8438C75.2869 98.8438 74.6506 99.0227 74.0597 99.3807C73.4688 99.7386 72.9744 100.196 72.5767 100.753C72.1847 101.304 71.9375 101.872 71.8352 102.457L71.5369 104.205C71.3892 105.159 71.4148 105.926 71.6136 106.506C71.8182 107.085 72.1761 107.506 72.6875 107.767C73.1989 108.028 73.8381 108.159 74.6051 108.159C75.0994 108.159 75.5568 108.091 75.9773 107.955C76.4034 107.812 76.7813 107.605 77.1108 107.332C77.4403 107.054 77.7159 106.707 77.9375 106.293L80.2727 106.727C79.9602 107.437 79.5114 108.06 78.9261 108.594C78.3409 109.122 77.6506 109.534 76.8551 109.83C76.0653 110.119 75.1903 110.264 74.2301 110.264ZM88.201 92.5455L85.3033 110H82.755L85.6527 92.5455H88.201ZM94.3395 110.264C93.0554 110.264 91.9929 109.989 91.152 109.438C90.3168 108.881 89.7315 108.099 89.3963 107.094C89.0611 106.082 89.0071 104.898 89.2344 103.54C89.456 102.199 89.902 101.017 90.5724 99.9943C91.2429 98.9716 92.0781 98.1733 93.0781 97.5994C94.0838 97.0256 95.1946 96.7386 96.4105 96.7386C97.1491 96.7386 97.8452 96.8608 98.4986 97.1051C99.1577 97.3494 99.7173 97.733 100.178 98.2557C100.638 98.7784 100.956 99.4574 101.132 100.293C101.314 101.122 101.308 102.131 101.115 103.318L100.97 104.222H90.5554L90.8537 102.312H98.7628C98.8821 101.642 98.8509 101.048 98.669 100.531C98.4872 100.009 98.1747 99.5966 97.7315 99.2955C97.294 98.9943 96.7429 98.8438 96.0781 98.8438C95.3963 98.8438 94.7599 99.0227 94.169 99.3807C93.5781 99.7386 93.0838 100.196 92.6861 100.753C92.294 101.304 92.0469 101.872 91.9446 102.457L91.6463 104.205C91.4986 105.159 91.5241 105.926 91.723 106.506C91.9276 107.085 92.2855 107.506 92.7969 107.767C93.3082 108.028 93.9474 108.159 94.7145 108.159C95.2088 108.159 95.6662 108.091 96.0866 107.955C96.5128 107.812 96.8906 107.605 97.2202 107.332C97.5497 107.054 97.8253 106.707 98.0469 106.293L100.382 106.727C100.07 107.437 99.6207 108.06 99.0355 108.594C98.4503 109.122 97.7599 109.534 96.9645 109.83C96.1747 110.119 95.2997 110.264 94.3395 110.264ZM108.344 110.264C107.072 110.264 106.029 109.977 105.217 109.403C104.404 108.824 103.839 108.026 103.521 107.009C103.202 105.991 103.151 104.827 103.367 103.514C103.583 102.185 104.023 101.011 104.688 99.9943C105.359 98.9716 106.197 98.1733 107.202 97.5994C108.214 97.0256 109.336 96.7386 110.569 96.7386C111.563 96.7386 112.418 96.9233 113.134 97.2926C113.85 97.6562 114.393 98.1676 114.762 98.8267C115.131 99.4858 115.29 100.256 115.239 101.136H112.759C112.719 100.523 112.492 99.9943 112.077 99.5511C111.663 99.108 111.052 98.8864 110.245 98.8864C109.535 98.8864 108.881 99.0739 108.285 99.4489C107.688 99.8182 107.185 100.347 106.776 101.034C106.367 101.716 106.089 102.523 105.941 103.455C105.782 104.409 105.79 105.233 105.967 105.926C106.143 106.619 106.467 107.156 106.938 107.537C107.41 107.918 108.004 108.108 108.719 108.108C109.208 108.108 109.663 108.02 110.083 107.844C110.509 107.662 110.884 107.403 111.208 107.068C111.538 106.733 111.793 106.33 111.975 105.858H114.464C114.219 106.705 113.81 107.46 113.237 108.125C112.668 108.79 111.969 109.312 111.14 109.693C110.31 110.074 109.379 110.264 108.344 110.264ZM124.774 96.9091L124.442 98.9545H117.291L117.624 96.9091H124.774ZM120.053 93.7727H122.601L120.538 106.156C120.459 106.651 120.473 107.023 120.581 107.273C120.689 107.517 120.854 107.685 121.075 107.776C121.303 107.861 121.555 107.903 121.834 107.903C122.038 107.903 122.217 107.889 122.371 107.861C122.524 107.832 122.646 107.81 122.737 107.793L122.874 109.898C122.703 109.955 122.473 110.011 122.183 110.068C121.899 110.131 121.553 110.165 121.143 110.17C120.473 110.182 119.868 110.062 119.328 109.812C118.788 109.557 118.385 109.17 118.118 108.653C117.851 108.131 117.786 107.474 117.922 106.685L120.053 93.7727ZM125.411 110L127.593 96.9091H130.056L129.707 98.9886H129.843C130.195 98.2841 130.71 97.7301 131.386 97.3267C132.062 96.9176 132.783 96.7131 133.55 96.7131C133.715 96.7131 133.903 96.7187 134.113 96.7301C134.323 96.7358 134.494 96.75 134.624 96.7727L134.215 99.2102C134.119 99.1818 133.942 99.1506 133.687 99.1165C133.431 99.0767 133.167 99.0568 132.894 99.0568C132.298 99.0568 131.744 99.1847 131.232 99.4403C130.721 99.6903 130.292 100.04 129.945 100.489C129.599 100.932 129.374 101.437 129.272 102.006L127.96 110H125.411ZM139.774 110.264C138.53 110.264 137.49 109.98 136.655 109.412C135.82 108.838 135.232 108.037 134.891 107.009C134.555 105.974 134.499 104.773 134.72 103.403C134.936 102.062 135.371 100.892 136.024 99.892C136.683 98.892 137.507 98.1165 138.496 97.5653C139.49 97.0142 140.595 96.7386 141.811 96.7386C143.055 96.7386 144.092 97.0256 144.922 97.5994C145.757 98.1733 146.345 98.9773 146.686 100.011C147.027 101.045 147.087 102.25 146.865 103.625C146.649 104.955 146.209 106.119 145.544 107.119C144.885 108.114 144.061 108.886 143.072 109.438C142.084 109.989 140.984 110.264 139.774 110.264ZM139.919 108.125C140.737 108.125 141.45 107.909 142.058 107.477C142.672 107.045 143.172 106.472 143.558 105.756C143.945 105.04 144.209 104.256 144.351 103.403C144.482 102.58 144.479 101.827 144.342 101.145C144.212 100.457 143.928 99.9062 143.49 99.4915C143.053 99.0767 142.445 98.8693 141.666 98.8693C140.848 98.8693 140.129 99.0881 139.51 99.5256C138.896 99.9574 138.396 100.534 138.01 101.256C137.629 101.977 137.371 102.764 137.234 103.616C137.104 104.435 137.104 105.188 137.234 105.875C137.365 106.557 137.649 107.102 138.087 107.511C138.524 107.92 139.135 108.125 139.919 108.125ZM152.496 102.227L151.218 110H148.67L150.852 96.9091H153.298L152.94 99.0398H153.102C153.516 98.3409 154.082 97.7841 154.798 97.3693C155.519 96.9489 156.371 96.7386 157.354 96.7386C158.241 96.7386 158.985 96.9261 159.587 97.3011C160.195 97.6705 160.624 98.2216 160.874 98.9545C161.13 99.6875 161.17 100.594 160.994 101.673L159.596 110H157.048L158.386 101.98C158.539 101.031 158.414 100.29 158.011 99.7557C157.613 99.2159 156.979 98.946 156.11 98.946C155.519 98.946 154.971 99.0739 154.465 99.3295C153.965 99.5852 153.542 99.9602 153.195 100.455C152.854 100.943 152.621 101.534 152.496 102.227ZM163.005 110L165.187 96.9091H167.735L165.553 110H163.005ZM166.994 94.8636C166.55 94.8636 166.175 94.7159 165.869 94.4205C165.567 94.1193 165.428 93.7614 165.451 93.3466C165.474 92.9261 165.65 92.5682 165.979 92.2727C166.309 91.9716 166.692 91.821 167.13 91.821C167.573 91.821 167.945 91.9716 168.246 92.2727C168.548 92.5682 168.69 92.9261 168.673 93.3466C168.65 93.7614 168.474 94.1193 168.144 94.4205C167.82 94.7159 167.437 94.8636 166.994 94.8636ZM174.462 110.264C173.189 110.264 172.146 109.977 171.334 109.403C170.521 108.824 169.956 108.026 169.638 107.009C169.32 105.991 169.268 104.827 169.484 103.514C169.7 102.185 170.141 101.011 170.805 99.9943C171.476 98.9716 172.314 98.1733 173.32 97.5994C174.331 97.0256 175.453 96.7386 176.686 96.7386C177.68 96.7386 178.536 96.9233 179.251 97.2926C179.967 97.6562 180.51 98.1676 180.879 98.8267C181.249 99.4858 181.408 100.256 181.357 101.136H178.876C178.837 100.523 178.609 99.9943 178.195 99.5511C177.78 99.108 177.169 98.8864 176.362 98.8864C175.652 98.8864 174.999 99.0739 174.402 99.4489C173.805 99.8182 173.303 100.347 172.893 101.034C172.484 101.716 172.206 102.523 172.058 103.455C171.899 104.409 171.908 105.233 172.084 105.926C172.26 106.619 172.584 107.156 173.055 107.537C173.527 107.918 174.121 108.108 174.837 108.108C175.325 108.108 175.78 108.02 176.2 107.844C176.626 107.662 177.001 107.403 177.325 107.068C177.655 106.733 177.911 106.33 178.092 105.858H180.581C180.337 106.705 179.928 107.46 179.354 108.125C178.786 108.79 178.087 109.312 177.257 109.693C176.428 110.074 175.496 110.264 174.462 110.264Z" fill="#C0E2F1"/>
</svg>
